<?xml version="1.0" encoding="utf-8"?>
<!-- Generator: Adobe Illustrator 27.9.5, SVG Export Plug-In . SVG Version: 9.03 Build 54986)  -->
<svg version="1.1" id="Layer_1" xmlns="http://www.w3.org/2000/svg" xmlns:xlink="http://www.w3.org/1999/xlink" x="0px" y="0px"
	 viewBox="0 0 329.72 329.72" style="enable-background:new 0 0 329.72 329.72;" xml:space="preserve">
<style type="text/css">
	.st0{clip-path:url(#SVGID_00000183214075306275609580000009072023694960523154_);}
	.st1{clip-path:url(#SVGID_00000039131868567305969270000007443975605218614706_);fill:#FFFFFF;}
	.st2{clip-path:url(#SVGID_00000039131868567305969270000007443975605218614706_);fill:#7FC5DE;}
	.st3{clip-path:url(#SVGID_00000039131868567305969270000007443975605218614706_);fill:#39A5CC;}
	.st4{clip-path:url(#SVGID_00000039131868567305969270000007443975605218614706_);fill:#36687F;}
</style>
<g>
	<g>
		<defs>
			<rect id="SVGID_1_" x="-54" y="0.39" width="437.33" height="328"/>
		</defs>
		<clipPath id="SVGID_00000068675091932514127480000012687618904600327040_">
			<use xlink:href="#SVGID_1_"  style="overflow:visible;"/>
		</clipPath>
		<g style="clip-path:url(#SVGID_00000068675091932514127480000012687618904600327040_);">
			<defs>
				<rect id="SVGID_00000094612874053983388640000005890788770511006862_" x="-54" y="0.39" width="437.33" height="328"/>
			</defs>
			<clipPath id="SVGID_00000001650343970859175190000012064264341913612701_">
				<use xlink:href="#SVGID_00000094612874053983388640000005890788770511006862_"  style="overflow:visible;"/>
			</clipPath>
			<path style="clip-path:url(#SVGID_00000001650343970859175190000012064264341913612701_);fill:#FFFFFF;" d="M115.69,59.28
				c12.51,0,24.99,0.13,37.48-0.08c8.29,31.95,16.12,64.02,24.2,96.01c8.35-32.03,16.66-64.08,25.43-96.01
				c11.92,0.19,23.87,0.13,35.79,0.04c0.23,39.86,0.13,79.74,0.04,119.6c-9.38-0.17-18.75-0.06-28.15-0.1
				c-0.06-25.68,0.04-51.34-0.02-77c-6.56,25.68-13.05,51.43-20.02,77c-9.4-0.1-18.81,0.29-28.21-0.25
				c-6.72-26.68-13.89-53.27-20.96-79.87c0.33,26.68,0.15,53.39,0.15,80.07c-8.6,0.08-17.18,0.08-25.77,0
				C115.78,138.89,115.67,99.07,115.69,59.28"/>
			<path style="clip-path:url(#SVGID_00000001650343970859175190000012064264341913612701_);fill:#FFFFFF;" d="M132.73,247.51
				c5.03,0.04,10.06,0.06,15.12,0.08c4.53,15.12,9.12,30.21,13.61,45.33c-3.9-0.02-7.79-0.06-11.69-0.19
				c-0.84-3.22-1.69-6.43-2.55-9.65c-4.55-0.06-9.08-0.06-13.63,0.04c-0.81,3.26-1.63,6.51-2.44,9.77h-11.42
				C124.17,277.81,128.41,262.65,132.73,247.51 M140.23,256.01c-1.63,6.14-3.13,12.3-4.36,18.52h8.96
				C143.44,268.33,141.96,262.12,140.23,256.01"/>
			<path style="clip-path:url(#SVGID_00000001650343970859175190000012064264341913612701_);fill:#FFFFFF;" d="M157.08,247.59
				c4.01-0.02,8.02-0.02,12.03,0c2.8,6.31,5.37,12.69,8.31,18.94c2.71-6.28,5.41-12.57,8.06-18.9c3.95-0.06,7.91-0.08,11.88-0.08
				c-4.38,7.46-8.1,15.28-12.19,22.91c-4.26,6.68-1.63,14.95-2.34,22.4c-3.78,0-7.58,0.02-11.36,0.02
				c-0.21-6.12,0.54-12.32-0.42-18.4C166.66,265.4,161.8,256.53,157.08,247.59"/>
			<path style="clip-path:url(#SVGID_00000001650343970859175190000012064264341913612701_);fill:#FFFFFF;" d="M205.98,247.61
				c5.05-0.04,10.11-0.06,15.18-0.1c4.55,15.14,8.96,30.3,13.68,45.37c-3.97,0.06-7.91,0.04-11.86-0.25
				c-0.77-3.22-1.61-6.41-2.59-9.54c-4.53-0.1-9.04-0.1-13.55,0.19c-0.77,3.22-1.61,6.43-2.44,9.65c-3.78-0.02-7.58-0.04-11.36-0.04
				C197.42,277.81,201.76,262.73,205.98,247.61 M213.6,255.21c-1.63,6.37-2.99,12.8-4.68,19.15c3.09,0.06,6.2,0.15,9.29,0.23
				C216.48,268.18,215.14,261.66,213.6,255.21"/>
			<path style="clip-path:url(#SVGID_00000001650343970859175190000012064264341913612701_);fill:#7FC5DE;" d="M20.48,39.38
				c15.39-9.5,30.9-18.77,46.44-28.06c0.25,71.76-0.15,143.51,0.19,215.27c-7.22,3.93-14.11,8.44-21.19,12.63
				c-8.5,5.03-16.87,10.31-25.41,15.26C20.46,182.78,20.5,111.08,20.48,39.38"/>
			<path style="clip-path:url(#SVGID_00000001650343970859175190000012064264341913612701_);fill:#39A5CC;" d="M66.92,11.31
				c68.4-0.06,136.81-0.02,205.21-0.02c7.68-0.19,15.14,6.31,15.35,14.14c0.38,11.17-0.04,22.36,0.13,33.53
				c0.25,55.79,0.15,111.58,0.06,167.37c-73.52,0.38-147.04-0.17-220.56,0.25C66.77,154.82,67.17,83.08,66.92,11.31 M115.69,59.28
				c-0.02,39.8,0.08,79.62-0.04,119.41c8.58,0.08,17.16,0.08,25.77,0c0-26.68,0.19-53.39-0.15-80.07
				c7.08,26.6,14.24,53.18,20.96,79.87c9.4,0.54,18.81,0.15,28.21,0.25c6.97-25.58,13.47-51.32,20.02-77
				c0.06,25.66-0.04,51.32,0.02,77c9.4,0.04,18.77-0.06,28.15,0.1c0.08-39.86,0.19-79.74-0.04-119.6
				c-11.92,0.08-23.87,0.15-35.79-0.04c-8.77,31.93-17.08,63.98-25.43,96.01c-8.08-31.99-15.91-64.06-24.2-96.01
				C140.69,59.4,128.2,59.28,115.69,59.28"/>
			<path style="clip-path:url(#SVGID_00000001650343970859175190000012064264341913612701_);fill:#36687F;" d="M287.6,58.96
				c7.08,0,14.16,0,21.24,0.04c0.02,86.17,0,172.34,0.02,258.49c-82.66-0.19-165.31,0.06-247.95-0.13
				c-8.37-0.13-15.93-7.83-15.01-16.35c0-20.59,0-41.2,0.02-61.8c7.08-4.2,13.97-8.71,21.19-12.63
				c73.52-0.42,147.04,0.13,220.56-0.25C287.74,170.55,287.85,114.75,287.6,58.96 M132.73,247.51c-4.32,15.14-8.56,30.3-13.01,45.39
				h11.42c0.81-3.26,1.63-6.51,2.44-9.77c4.55-0.11,9.08-0.11,13.63-0.04c0.86,3.22,1.71,6.43,2.55,9.65
				c3.9,0.13,7.79,0.17,11.69,0.19c-4.49-15.12-9.08-30.21-13.61-45.33C142.8,247.57,137.76,247.55,132.73,247.51 M157.08,247.59
				c4.72,8.94,9.58,17.81,13.97,26.89c0.96,6.08,0.21,12.28,0.42,18.4c3.78,0,7.58-0.02,11.36-0.02c0.71-7.45-1.92-15.72,2.34-22.4
				c4.09-7.62,7.81-15.45,12.19-22.91c-3.97,0-7.93,0.02-11.88,0.08c-2.65,6.33-5.35,12.61-8.06,18.9
				c-2.94-6.24-5.51-12.63-8.31-18.94C165.09,247.57,161.09,247.57,157.08,247.59 M205.98,247.61
				c-4.22,15.12-8.56,30.19-12.95,45.27c3.78,0,7.58,0.02,11.36,0.04c0.84-3.22,1.67-6.43,2.44-9.65c4.51-0.29,9.02-0.29,13.55-0.19
				c0.98,3.13,1.82,6.33,2.59,9.54c3.95,0.29,7.89,0.31,11.86,0.25c-4.72-15.08-9.12-30.23-13.68-45.37
				C216.08,247.55,211.03,247.57,205.98,247.61"/>
			<path style="clip-path:url(#SVGID_00000001650343970859175190000012064264341913612701_);fill:#36687F;" d="M140.23,256.01
				c1.73,6.12,3.22,12.32,4.59,18.52h-8.96C137.09,268.3,138.6,262.15,140.23,256.01"/>
			<path style="clip-path:url(#SVGID_00000001650343970859175190000012064264341913612701_);fill:#36687F;" d="M213.6,255.21
				c1.54,6.45,2.88,12.97,4.61,19.38c-3.09-0.08-6.2-0.17-9.29-0.23C210.61,268.01,211.97,261.58,213.6,255.21"/>
		</g>
	</g>
</g>
</svg>
